<?xml version="1.0" encoding="UTF-8" standalone="no"?><svg xmlns="http://www.w3.org/2000/svg" xmlns:xlink="http://www.w3.org/1999/xlink" clip-rule="evenodd" stroke-miterlimit="4.00" viewBox="0 0 1024 768"><desc>SVG generated by Keynote</desc><defs></defs><g transform="matrix(1.00, 0.00, -0.00, -1.00, 0.0, 768.0)"><path d="M 0.0 768.0 L 1024.0 768.0 L 1024.0 0.0 L 0.0 0.0 Z M 0.0 768.0 " fill="#FEFFFF"></path><text xml:space="preserve" font-family="HelveticaNeue-Medium" font-size="76.0" fill="#000000" transform="matrix(1.00, 0.00, -0.00, -1.00, 448.0, 634.0)">Д</text><text xml:space="preserve" font-family="HelveticaNeue-Medium" font-size="76.0" fill="#000000" transform="matrix(1.00, 0.00, -0.00, -1.00, 509.4, 634.0)">З</text><text xml:space="preserve" font-family="HelveticaNeue-Medium" font-size="76.0" fill="#000000" transform="matrix(1.00, 0.00, -0.00, -1.00, 554.3, 634.0)">!</text><text xml:space="preserve" font-family="HelveticaNeue-Bold" font-weight="bold" font-size="55.1" fill="#000000" transform="matrix(1.00, 0.00, -0.00, -1.00, 91.7, 490.2)">•</text><text xml:space="preserve" font-family="HelveticaNeue-Bold" font-weight="bold" font-size="38.0" fill="#000000" transform="matrix(1.00, 0.00, -0.00, -1.00, 133.0, 497.0)">С</text><text xml:space="preserve" font-family="HelveticaNeue-Bold" font-weight="bold" font-size="38.0" fill="#000000" transform="matrix(1.00, 0.00, -0.00, -1.00, 161.2, 497.0)">д</text><text xml:space="preserve" font-family="HelveticaNeue-Bold" font-weight="bold" font-size="38.0" fill="#000000" transform="matrix(1.00, 0.00, -0.00, -1.00, 184.9, 497.0)">е</text><text xml:space="preserve" font-family="HelveticaNeue-Bold" font-weight="bold" font-size="38.0" fill="#000000" transform="matrix(1.00, 0.00, -0.00, -1.00, 206.7, 497.0)">л</text><text xml:space="preserve" font-family="HelveticaNeue-Bold" font-weight="bold" font-size="38.0" fill="#000000" transform="matrix(1.00, 0.00, -0.00, -1.00, 229.4, 497.0)">а</text><text xml:space="preserve" font-family="HelveticaNeue-Bold" font-weight="bold" font-size="38.0" fill="#000000" transform="matrix(1.00, 0.00, -0.00, -1.00, 251.3, 497.0)">т</text><text xml:space="preserve" font-family="HelveticaNeue-Bold" font-weight="bold" font-size="38.0" fill="#000000" transform="matrix(1.00, 0.00, -0.00, -1.00, 270.3, 497.0)">ь</text><text xml:space="preserve" font-family="HelveticaNeue-Bold" font-weight="bold" font-size="38.0" fill="#000000" transform="matrix(1.00, 0.00, -0.00, -1.00, 291.2, 497.0)"> </text><text xml:space="preserve" font-family="HelveticaNeue-Bold" font-weight="bold" font-size="38.0" fill="#000000" transform="matrix(1.00, 0.00, -0.00, -1.00, 301.7, 497.0)">у</text><text xml:space="preserve" font-family="HelveticaNeue-Bold" font-weight="bold" font-size="38.0" fill="#000000" transform="matrix(1.00, 0.00, -0.00, -1.00, 321.4, 497.0)">ч</text><text xml:space="preserve" font-family="HelveticaNeue-Bold" font-weight="bold" font-size="38.0" fill="#000000" transform="matrix(1.00, 0.00, -0.00, -1.00, 343.3, 497.0)">е</text><text xml:space="preserve" font-family="HelveticaNeue-Bold" font-weight="bold" font-size="38.0" fill="#000000" transform="matrix(1.00, 0.00, -0.00, -1.00, 365.1, 497.0)">т</text><text xml:space="preserve" font-family="HelveticaNeue-Bold" font-weight="bold" font-size="38.0" fill="#000000" transform="matrix(1.00, 0.00, -0.00, -1.00, 384.1, 497.0)">н</text><text xml:space="preserve" font-family="HelveticaNeue-Bold" font-weight="bold" font-size="38.0" fill="#000000" transform="matrix(1.00, 0.00, -0.00, -1.00, 406.7, 497.0)">у</text><text xml:space="preserve" font-family="HelveticaNeue-Bold" font-weight="bold" font-size="38.0" fill="#000000" transform="matrix(1.00, 0.00, -0.00, -1.00, 426.4, 497.0)">ю</text><text xml:space="preserve" font-family="HelveticaNeue-Bold" font-weight="bold" font-size="38.0" fill="#000000" transform="matrix(1.00, 0.00, -0.00, -1.00, 458.1, 497.0)"> </text><text xml:space="preserve" font-family="HelveticaNeue-Bold" font-weight="bold" font-size="38.0" fill="#000000" transform="matrix(1.00, 0.00, -0.00, -1.00, 468.7, 497.0)">з</text><text xml:space="preserve" font-family="HelveticaNeue-Bold" font-weight="bold" font-size="38.0" fill="#000000" transform="matrix(1.00, 0.00, -0.00, -1.00, 489.3, 497.0)">а</text><text xml:space="preserve" font-family="HelveticaNeue-Bold" font-weight="bold" font-size="38.0" fill="#000000" transform="matrix(1.00, 0.00, -0.00, -1.00, 511.1, 497.0)">п</text><text xml:space="preserve" font-family="HelveticaNeue-Bold" font-weight="bold" font-size="38.0" fill="#000000" transform="matrix(1.00, 0.00, -0.00, -1.00, 533.3, 497.0)">и</text><text xml:space="preserve" font-family="HelveticaNeue-Bold" font-weight="bold" font-size="38.0" fill="#000000" transform="matrix(1.00, 0.00, -0.00, -1.00, 556.1, 497.0)">с</text><text xml:space="preserve" font-family="HelveticaNeue-Bold" font-weight="bold" font-size="38.0" fill="#000000" transform="matrix(1.00, 0.00, -0.00, -1.00, 577.9, 497.0)">ь</text><text xml:space="preserve" font-family="HelveticaNeue-Bold" font-weight="bold" font-size="38.0" fill="#000000" transform="matrix(1.00, 0.00, -0.00, -1.00, 598.7, 497.0)"> </text><text xml:space="preserve" font-family="HelveticaNeue-Bold" font-weight="bold" font-size="38.0" fill="#000000" transform="matrix(1.00, 0.00, -0.00, -1.00, 609.3, 497.0)">н</text><text xml:space="preserve" font-family="HelveticaNeue-Bold" font-weight="bold" font-size="38.0" fill="#000000" transform="matrix(1.00, 0.00, -0.00, -1.00, 631.8, 497.0)">а</text><text xml:space="preserve" font-family="HelveticaNeue-Bold" font-weight="bold" font-size="38.0" fill="#000000" transform="matrix(1.00, 0.00, -0.00, -1.00, 653.6, 497.0)"> </text><text xml:space="preserve" font-family="HelveticaNeue-Bold" font-weight="bold" font-size="38.0" fill="#000000" transform="matrix(1.00, 0.00, -0.00, -1.00, 664.2, 497.0)">г</text><text xml:space="preserve" font-family="HelveticaNeue-Bold" font-weight="bold" font-size="38.0" fill="#000000" transform="matrix(1.00, 0.00, -0.00, -1.00, 681.4, 497.0)">и</text><text xml:space="preserve" font-family="HelveticaNeue-Bold" font-weight="bold" font-size="38.0" fill="#000000" transform="matrix(1.00, 0.00, -0.00, -1.00, 704.2, 497.0)">т</text><text xml:space="preserve" font-family="HelveticaNeue-Bold" font-weight="bold" font-size="38.0" fill="#000000" transform="matrix(1.00, 0.00, -0.00, -1.00, 723.3, 497.0)">х</text><text xml:space="preserve" font-family="HelveticaNeue-Bold" font-weight="bold" font-size="38.0" fill="#000000" transform="matrix(1.00, 0.00, -0.00, -1.00, 743.7, 497.0)">а</text><text xml:space="preserve" font-family="HelveticaNeue-Bold" font-weight="bold" font-size="38.0" fill="#000000" transform="matrix(1.00, 0.00, -0.00, -1.00, 765.5, 497.0)">б</text><text xml:space="preserve" font-family="HelveticaNeue-Bold" font-weight="bold" font-size="38.0" fill="#000000" transform="matrix(1.00, 0.00, -0.00, -1.00, 788.5, 497.0)">е</text><text xml:space="preserve" font-family="HelveticaNeue-Bold" font-weight="bold" font-size="38.0" fill="#000000" transform="matrix(1.00, 0.00, -0.00, -1.00, 810.4, 497.0)"> </text><text xml:space="preserve" font-family="HelveticaNeue-Bold" font-weight="bold" font-size="55.1" fill="#000000" transform="matrix(1.00, 0.00, -0.00, -1.00, 91.7, 421.8)">•</text><text xml:space="preserve" font-family="HelveticaNeue-Bold" font-weight="bold" font-size="38.0" fill="#000000" transform="matrix(1.00, 0.00, -0.00, -1.00, 133.0, 429.0)">З</text><text xml:space="preserve" font-family="HelveticaNeue-Bold" font-weight="bold" font-size="38.0" fill="#000000" transform="matrix(1.00, 0.00, -0.00, -1.00, 157.6, 429.0)">а</text><text xml:space="preserve" font-family="HelveticaNeue-Bold" font-weight="bold" font-size="38.0" fill="#000000" transform="matrix(1.00, 0.00, -0.00, -1.00, 179.4, 429.0)">в</text><text xml:space="preserve" font-family="HelveticaNeue-Bold" font-weight="bold" font-size="38.0" fill="#000000" transform="matrix(1.00, 0.00, -0.00, -1.00, 201.5, 429.0)">е</text><text xml:space="preserve" font-family="HelveticaNeue-Bold" font-weight="bold" font-size="38.0" fill="#000000" transform="matrix(1.00, 0.00, -0.00, -1.00, 223.3, 429.0)">с</text><text xml:space="preserve" font-family="HelveticaNeue-Bold" font-weight="bold" font-size="38.0" fill="#000000" transform="matrix(1.00, 0.00, -0.00, -1.00, 245.1, 429.0)">т</text><text xml:space="preserve" font-family="HelveticaNeue-Bold" font-weight="bold" font-size="38.0" fill="#000000" transform="matrix(1.00, 0.00, -0.00, -1.00, 264.2, 429.0)">и</text><text xml:space="preserve" font-family="HelveticaNeue-Bold" font-weight="bold" font-size="38.0" fill="#000000" transform="matrix(1.00, 0.00, -0.00, -1.00, 287.0, 429.0)"> </text><text xml:space="preserve" font-family="HelveticaNeue-Bold" font-weight="bold" font-size="38.0" fill="#000000" transform="matrix(1.00, 0.00, -0.00, -1.00, 297.5, 429.0)">т</text><text xml:space="preserve" font-family="HelveticaNeue-Bold" font-weight="bold" font-size="38.0" fill="#000000" transform="matrix(1.00, 0.00, -0.00, -1.00, 316.6, 429.0)">у</text><text xml:space="preserve" font-family="HelveticaNeue-Bold" font-weight="bold" font-size="38.0" fill="#000000" transform="matrix(1.00, 0.00, -0.00, -1.00, 336.3, 429.0)">д</text><text xml:space="preserve" font-family="HelveticaNeue-Bold" font-weight="bold" font-size="38.0" fill="#000000" transform="matrix(1.00, 0.00, -0.00, -1.00, 360.0, 429.0)">а</text><text xml:space="preserve" font-family="HelveticaNeue-Bold" font-weight="bold" font-size="38.0" fill="#000000" transform="matrix(1.00, 0.00, -0.00, -1.00, 381.9, 429.0)"> </text><text xml:space="preserve" font-family="HelveticaNeue-Bold" font-weight="bold" font-size="38.0" fill="#000000" transform="matrix(1.00, 0.00, -0.00, -1.00, 392.4, 429.0)">с</text><text xml:space="preserve" font-family="HelveticaNeue-Bold" font-weight="bold" font-size="38.0" fill="#000000" transform="matrix(1.00, 0.00, -0.00, -1.00, 414.2, 429.0)">в</text><text xml:space="preserve" font-family="HelveticaNeue-Bold" font-weight="bold" font-size="38.0" fill="#000000" transform="matrix(1.00, 0.00, -0.00, -1.00, 436.3, 429.0)">о</text><text xml:space="preserve" font-family="HelveticaNeue-Bold" font-weight="bold" font-size="38.0" fill="#000000" transform="matrix(1.00, 0.00, -0.00, -1.00, 459.5, 429.0)">й</text><text xml:space="preserve" font-family="HelveticaNeue-Bold" font-weight="bold" font-size="38.0" fill="#000000" transform="matrix(1.00, 0.00, -0.00, -1.00, 482.3, 429.0)"> </text><text xml:space="preserve" font-family="HelveticaNeue-Bold" font-weight="bold" font-size="38.0" fill="#000000" transform="matrix(1.00, 0.00, -0.00, -1.00, 492.9, 429.0)">п</text><text xml:space="preserve" font-family="HelveticaNeue-Bold" font-weight="bold" font-size="38.0" fill="#000000" transform="matrix(1.00, 0.00, -0.00, -1.00, 515.1, 429.0)">р</text><text xml:space="preserve" font-family="HelveticaNeue-Bold" font-weight="bold" font-size="38.0" fill="#000000" transform="matrix(1.00, 0.00, -0.00, -1.00, 538.3, 429.0)">о</text><text xml:space="preserve" font-family="HelveticaNeue-Bold" font-weight="bold" font-size="38.0" fill="#000000" transform="matrix(1.00, 0.00, -0.00, -1.00, 561.5, 429.0)">е</text><text xml:space="preserve" font-family="HelveticaNeue-Bold" font-weight="bold" font-size="38.0" fill="#000000" transform="matrix(1.00, 0.00, -0.00, -1.00, 583.3, 429.0)">к</text><text xml:space="preserve" font-family="HelveticaNeue-Bold" font-weight="bold" font-size="38.0" fill="#000000" transform="matrix(1.00, 0.00, -0.00, -1.00, 605.1, 429.0)">т</text><text xml:space="preserve" font-family="HelveticaNeue-Bold" font-weight="bold" font-size="38.0" fill="#000000" transform="matrix(1.00, 0.00, -0.00, -1.00, 624.2, 429.0)"> </text><text xml:space="preserve" font-family="HelveticaNeue-Bold" font-weight="bold" font-size="55.1" fill="#000000" transform="matrix(1.00, 0.00, -0.00, -1.00, 91.7, 353.3)">•</text><text xml:space="preserve" font-family="HelveticaNeue-Bold" font-weight="bold" font-size="38.0" fill="#000000" transform="matrix(1.00, 0.00, -0.00, -1.00, 133.0, 360.0)">Ч</text><text xml:space="preserve" font-family="HelveticaNeue-Bold" font-weight="bold" font-size="38.0" fill="#000000" transform="matrix(1.00, 0.00, -0.00, -1.00, 158.8, 360.0)">и</text><text xml:space="preserve" font-family="HelveticaNeue-Bold" font-weight="bold" font-size="38.0" fill="#000000" transform="matrix(1.00, 0.00, -0.00, -1.00, 181.6, 360.0)">т</text><text xml:space="preserve" font-family="HelveticaNeue-Bold" font-weight="bold" font-size="38.0" fill="#000000" transform="matrix(1.00, 0.00, -0.00, -1.00, 200.7, 360.0)">а</text><text xml:space="preserve" font-family="HelveticaNeue-Bold" font-weight="bold" font-size="38.0" fill="#000000" transform="matrix(1.00, 0.00, -0.00, -1.00, 222.5, 360.0)">т</text><text xml:space="preserve" font-family="HelveticaNeue-Bold" font-weight="bold" font-size="38.0" fill="#000000" transform="matrix(1.00, 0.00, -0.00, -1.00, 241.6, 360.0)">ь</text><text xml:space="preserve" font-family="HelveticaNeue-Bold" font-weight="bold" font-size="38.0" fill="#000000" transform="matrix(1.00, 0.00, -0.00, -1.00, 262.4, 360.0)"> </text><text xml:space="preserve" font-family="HelveticaNeue-Bold" font-weight="bold" font-size="38.0" fill="#000000" transform="matrix(1.00, 0.00, -0.00, -1.00, 273.0, 360.0)">в</text><text xml:space="preserve" font-family="HelveticaNeue-Bold" font-weight="bold" font-size="38.0" fill="#000000" transform="matrix(1.00, 0.00, -0.00, -1.00, 295.1, 360.0)">с</text><text xml:space="preserve" font-family="HelveticaNeue-Bold" font-weight="bold" font-size="38.0" fill="#000000" transform="matrix(1.00, 0.00, -0.00, -1.00, 316.9, 360.0)">е</text><text xml:space="preserve" font-family="HelveticaNeue-Bold" font-weight="bold" font-size="38.0" fill="#000000" transform="matrix(1.00, 0.00, -0.00, -1.00, 338.7, 360.0)"> </text><text xml:space="preserve" font-family="HelveticaNeue-Bold" font-weight="bold" font-size="38.0" fill="#000000" transform="matrix(1.00, 0.00, -0.00, -1.00, 349.3, 360.0)">м</text><text xml:space="preserve" font-family="HelveticaNeue-Bold" font-weight="bold" font-size="38.0" fill="#000000" transform="matrix(1.00, 0.00, -0.00, -1.00, 377.3, 360.0)">а</text><text xml:space="preserve" font-family="HelveticaNeue-Bold" font-weight="bold" font-size="38.0" fill="#000000" transform="matrix(1.00, 0.00, -0.00, -1.00, 399.1, 360.0)">т</text><text xml:space="preserve" font-family="HelveticaNeue-Bold" font-weight="bold" font-size="38.0" fill="#000000" transform="matrix(1.00, 0.00, -0.00, -1.00, 418.2, 360.0)">е</text><text xml:space="preserve" font-family="HelveticaNeue-Bold" font-weight="bold" font-size="38.0" fill="#000000" transform="matrix(1.00, 0.00, -0.00, -1.00, 440.0, 360.0)">р</text><text xml:space="preserve" font-family="HelveticaNeue-Bold" font-weight="bold" font-size="38.0" fill="#000000" transform="matrix(1.00, 0.00, -0.00, -1.00, 463.2, 360.0)">и</text><text xml:space="preserve" font-family="HelveticaNeue-Bold" font-weight="bold" font-size="38.0" fill="#000000" transform="matrix(1.00, 0.00, -0.00, -1.00, 486.0, 360.0)">а</text><text xml:space="preserve" font-family="HelveticaNeue-Bold" font-weight="bold" font-size="38.0" fill="#000000" transform="matrix(1.00, 0.00, -0.00, -1.00, 507.8, 360.0)">л</text><text xml:space="preserve" font-family="HelveticaNeue-Bold" font-weight="bold" font-size="38.0" fill="#000000" transform="matrix(1.00, 0.00, -0.00, -1.00, 530.6, 360.0)">ы</text><text xml:space="preserve" font-family="HelveticaNeue-Bold" font-weight="bold" font-size="38.0" fill="#000000" transform="matrix(1.00, 0.00, -0.00, -1.00, 560.2, 360.0)"> </text><text xml:space="preserve" font-family="HelveticaNeue-Bold" font-weight="bold" font-size="38.0" fill="#000000" transform="matrix(1.00, 0.00, -0.00, -1.00, 570.7, 360.0)">и</text><text xml:space="preserve" font-family="HelveticaNeue-Bold" font-weight="bold" font-size="38.0" fill="#000000" transform="matrix(1.00, 0.00, -0.00, -1.00, 593.5, 360.0)"> </text><text xml:space="preserve" font-family="HelveticaNeue-Bold" font-weight="bold" font-size="38.0" fill="#000000" transform="matrix(1.00, 0.00, -0.00, -1.00, 604.1, 360.0)">и</text><text xml:space="preserve" font-family="HelveticaNeue-Bold" font-weight="bold" font-size="38.0" fill="#000000" transform="matrix(1.00, 0.00, -0.00, -1.00, 626.9, 360.0)">г</text><text xml:space="preserve" font-family="HelveticaNeue-Bold" font-weight="bold" font-size="38.0" fill="#000000" transform="matrix(1.00, 0.00, -0.00, -1.00, 644.1, 360.0)">р</text><text xml:space="preserve" font-family="HelveticaNeue-Bold" font-weight="bold" font-size="38.0" fill="#000000" transform="matrix(1.00, 0.00, -0.00, -1.00, 667.3, 360.0)">а</text><text xml:space="preserve" font-family="HelveticaNeue-Bold" font-weight="bold" font-size="38.0" fill="#000000" transform="matrix(1.00, 0.00, -0.00, -1.00, 689.1, 360.0)">т</text><text xml:space="preserve" font-family="HelveticaNeue-Bold" font-weight="bold" font-size="38.0" fill="#000000" transform="matrix(1.00, 0.00, -0.00, -1.00, 708.2, 360.0)">ь</text><text xml:space="preserve" font-family="HelveticaNeue-Bold" font-weight="bold" font-size="38.0" fill="#000000" transform="matrix(1.00, 0.00, -0.00, -1.00, 729.0, 360.0)"> </text><text xml:space="preserve" font-family="HelveticaNeue-Bold" font-weight="bold" font-size="38.0" fill="#000000" transform="matrix(1.00, 0.00, -0.00, -1.00, 739.6, 360.0)">с</text><text xml:space="preserve" font-family="HelveticaNeue-Bold" font-weight="bold" font-size="38.0" fill="#000000" transform="matrix(1.00, 0.00, -0.00, -1.00, 761.4, 360.0)"> </text><text xml:space="preserve" font-family="HelveticaNeue-Bold" font-weight="bold" font-size="38.0" fill="#000000" transform="matrix(1.00, 0.00, -0.00, -1.00, 772.0, 360.0)">д</text><text xml:space="preserve" font-family="HelveticaNeue-Bold" font-weight="bold" font-size="38.0" fill="#000000" transform="matrix(1.00, 0.00, -0.00, -1.00, 795.7, 360.0)">е</text><text xml:space="preserve" font-family="HelveticaNeue-Bold" font-weight="bold" font-size="38.0" fill="#000000" transform="matrix(1.00, 0.00, -0.00, -1.00, 817.5, 360.0)">т</text><text xml:space="preserve" font-family="HelveticaNeue-Bold" font-weight="bold" font-size="38.0" fill="#000000" transform="matrix(1.00, 0.00, -0.00, -1.00, 836.6, 360.0)">к</text><text xml:space="preserve" font-family="HelveticaNeue-Bold" font-weight="bold" font-size="38.0" fill="#000000" transform="matrix(1.00, 0.00, -0.00, -1.00, 858.4, 360.0)">а</text><text xml:space="preserve" font-family="HelveticaNeue-Bold" font-weight="bold" font-size="38.0" fill="#000000" transform="matrix(1.00, 0.00, -0.00, -1.00, 880.2, 360.0)">м</text><text xml:space="preserve" font-family="HelveticaNeue-Bold" font-weight="bold" font-size="38.0" fill="#000000" transform="matrix(1.00, 0.00, -0.00, -1.00, 908.2, 360.0)">и</text></g></svg>